<?xml version="1.0" encoding="UTF-8"?><svg id="Layer_2" xmlns="http://www.w3.org/2000/svg" xmlns:xlink="http://www.w3.org/1999/xlink" viewBox="0 0 344.07 139.71"><defs><style>.cls-1{fill:none;}.cls-2{fill:#a4a5a5;}.cls-3{fill:#ad2325;}.cls-4{fill:url(#linear-gradient-8);}.cls-5{fill:url(#linear-gradient-7);}.cls-6{fill:url(#linear-gradient-5);}.cls-7{fill:url(#linear-gradient-6);}.cls-8{fill:url(#linear-gradient-9);}.cls-9{fill:url(#linear-gradient-4);}.cls-10{fill:url(#linear-gradient-3);}.cls-11{fill:url(#linear-gradient-2);}.cls-12{fill:url(#_무제_그라디언트_86-11);}.cls-13{fill:url(#_무제_그라디언트_86-12);}.cls-14{fill:url(#_무제_그라디언트_86-10);}.cls-15{fill:url(#linear-gradient);}.cls-16{fill:url(#_무제_그라디언트_86-3);}.cls-17{fill:url(#_무제_그라디언트_86-4);}.cls-18{fill:url(#_무제_그라디언트_86-2);}.cls-19{fill:url(#_무제_그라디언트_86-6);}.cls-20{fill:url(#_무제_그라디언트_86-5);}.cls-21{fill:url(#_무제_그라디언트_86-9);}.cls-22{fill:url(#_무제_그라디언트_86-8);}.cls-23{fill:url(#_무제_그라디언트_86-7);}.cls-24{clip-path:url(#clippath-1);}.cls-25{clip-path:url(#clippath-3);}.cls-26{clip-path:url(#clippath-4);}.cls-27{clip-path:url(#clippath-2);}.cls-28{clip-path:url(#clippath-7);}.cls-29{clip-path:url(#clippath-6);}.cls-30{clip-path:url(#clippath-8);}.cls-31{clip-path:url(#clippath-5);}.cls-32{fill:url(#_무제_그라디언트_86);}.cls-33{fill:#575455;}.cls-34{fill:#f7b908;}.cls-35{fill:#0088c0;}.cls-36{clip-path:url(#clippath);}</style><linearGradient id="_무제_그라디언트_86" x1="175.06" y1="80.09" x2="175.06" y2="95.3" gradientUnits="userSpaceOnUse"><stop offset="0" stop-color="#31a7de"/><stop offset="1" stop-color="#5c1f7d"/></linearGradient><linearGradient id="_무제_그라디언트_86-2" x1="190.32" x2="190.32" y2="95.14" xlink:href="#_무제_그라디언트_86"/><linearGradient id="_무제_그라디언트_86-3" x1="205.09" x2="205.09" xlink:href="#_무제_그라디언트_86"/><linearGradient id="_무제_그라디언트_86-4" y1="102.96" y2="118.17" xlink:href="#_무제_그라디언트_86"/><linearGradient id="_무제_그라디언트_86-5" x1="190.32" y1="102.96" x2="190.32" y2="118" xlink:href="#_무제_그라디언트_86"/><linearGradient id="_무제_그라디언트_86-6" x1="205.09" y1="102.96" x2="205.09" y2="118.17" xlink:href="#_무제_그라디언트_86"/><clipPath id="clippath"><path class="cls-1" d="M7.56,101.51c.83,1.62,1.71,3.24,2.68,4.82,13.9,22.72,38.79,34.69,63.7,33.27-10.16-4.92-19.08-12.69-25.41-23.04-5.36-8.75-8.23-18.33-8.84-27.9-8.22-4.88-15.41-11.77-20.77-20.49-.02-.03-.04-.06-.06-.09-6.52-10.66-9.38-22.53-8.92-34.14C-2.08,54.05-3.59,79.58,7.56,101.51"/></clipPath><linearGradient id="linear-gradient" x1="-33.28" y1="369.72" x2="-31.86" y2="369.72" gradientTransform="translate(-12259.42 1188.92) rotate(90) scale(33.25 -33.25)" gradientUnits="userSpaceOnUse"><stop offset="0" stop-color="#31a7de"/><stop offset="1" stop-color="#5c1f7d"/></linearGradient><clipPath id="clippath-1"><path class="cls-1" d="M72.05,97.24c-2.05.16-4.1.09-6.12-.2-4.68-.39-9.3-1.32-13.76-2.76,15.08,22.36,42.7,31.72,67.65,24.42.17-.18.33-.37.51-.55l-25.71-25.71c-7.3,3.09-14.96,4.65-22.57,4.79"/></clipPath><linearGradient id="linear-gradient-2" x1="-47.05" y1="368.74" x2="-45.63" y2="368.74" gradientTransform="translate(2889.25 22555.1) scale(60.87 -60.87)" xlink:href="#linear-gradient"/><clipPath id="clippath-2"><path class="cls-1" d="M33.37,10.24c-9.96,6.09-17.83,14.3-23.44,23.7-.45,11.62,2.4,23.48,8.92,34.14.02.03.04.06.06.09,5.36,8.71,12.55,15.6,20.77,20.49-.47-7.26.37-14.52,2.44-21.43-.74-6.32-.48-12.69.74-18.86,3.18-16.17,12.85-31,28.02-40.28,4.55-2.79,9.33-4.9,14.22-6.38C80.05.58,74.89,0,69.7,0c-12.42,0-24.98,3.3-36.33,10.24"/></clipPath><linearGradient id="linear-gradient-3" x1="-39.44" y1="370.03" x2="-38.02" y2="370.03" gradientTransform="translate(-27041.16 2877.67) rotate(90) scale(73.21 -73.21)" gradientUnits="userSpaceOnUse"><stop offset="0" stop-color="#8accd8"/><stop offset="1" stop-color="#004998"/></linearGradient><clipPath id="clippath-3"><path class="cls-1" d="M39.68,88.65c.61,9.58,3.48,19.15,8.84,27.9,6.33,10.35,15.25,18.12,25.41,23.04,11.12-.63,22.24-3.93,32.39-10.14,5.04-3.08,9.55-6.71,13.5-10.75-24.95,7.3-52.57-2.06-67.65-24.42-.51-.76-1.02-1.52-1.49-2.31-1.31-2.14-2.46-4.33-3.47-6.55-.27-.4-.55-.81-.8-1.23-2.84-4.64-4.13-9.8-4.02-14.87-.11-.7-.19-1.4-.27-2.11-2.07,6.91-2.9,14.17-2.44,21.43"/></clipPath><linearGradient id="linear-gradient-4" x1="-45.61" y1="366.14" x2="-44.19" y2="366.14" gradientTransform="translate(2240.35 17950.87) scale(48.74 -48.74)" xlink:href="#linear-gradient"/><clipPath id="clippath-4"><path class="cls-1" d="M70.87,8.08c-15.16,9.28-24.84,24.12-28.02,40.28,3.92-1.83,7.95-3.2,12.04-4.14,3.91-4.41,8.53-8.33,13.82-11.57,15.73-9.63,34.09-11.26,50.38-6.06l3.05-3.05c-9.94-11.24-23-18.7-37.06-21.84-4.88,1.48-9.66,3.59-14.22,6.38"/></clipPath><linearGradient id="linear-gradient-5" x1="-44.55" y1="374.71" x2="-43.13" y2="374.71" gradientTransform="translate(44707.6 -5169.34) rotate(-90) scale(119.09 -119.09)" xlink:href="#linear-gradient-3"/><clipPath id="clippath-5"><path class="cls-1" d="M50.68,91.98c.48.78.98,1.55,1.49,2.31,4.46,1.44,9.08,2.37,13.76,2.76-7.36-1.07-14.25-5.09-18.72-11.61,1.01,2.22,2.16,4.41,3.47,6.55"/></clipPath><linearGradient id="linear-gradient-6" x1="-49.03" y1="366.32" x2="-47.62" y2="366.32" gradientTransform="translate(1897.83 14070.3) scale(38.16 -38.16)" xlink:href="#linear-gradient"/><clipPath id="clippath-6"><path class="cls-1" d="M84.19,93.29c-3.81,2.33-7.97,3.61-12.14,3.95,7.62-.14,15.27-1.7,22.57-4.79l-4.29-4.28c-1.74,1.95-3.8,3.69-6.14,5.13"/></clipPath><linearGradient id="linear-gradient-7" x1="-49.01" y1="366.23" x2="-47.6" y2="366.23" gradientTransform="translate(1902.11 14065.83) scale(38.15 -38.15)" xlink:href="#linear-gradient"/><clipPath id="clippath-7"><path class="cls-1" d="M68.72,32.66c-5.29,3.24-9.91,7.16-13.82,11.57,3.44-.78,6.91-1.28,10.38-1.47,3.78-.63,7.61-.46,11.27.46,6.05,1.53,11.59,5.1,15.48,10.44l4.27-4.27,22.79-22.79c-6.01-1.92-12.3-2.9-18.64-2.9-10.84,0-21.82,2.89-31.75,8.96"/></clipPath><linearGradient id="linear-gradient-8" x1="-54.66" y1="374.44" x2="-53.24" y2="374.44" gradientTransform="translate(10171.29 -1405.35) rotate(-90) scale(26.93 -26.93)" xlink:href="#linear-gradient-3"/><clipPath id="clippath-8"><path class="cls-1" d="M54.9,44.23c-4.09.94-8.12,2.31-12.04,4.14-1.22,6.17-1.48,12.53-.74,18.86.22-.73.45-1.45.69-2.17.88-4.92,3.08-9.59,6.48-13.43,1.76-1.99,3.84-3.76,6.22-5.22,3.09-1.89,6.41-3.09,9.78-3.65-3.47.18-6.94.69-10.38,1.47"/></clipPath><linearGradient id="linear-gradient-9" x1="-51.56" y1="384.6" x2="-50.14" y2="384.6" gradientTransform="translate(8394.93 -1062.85) rotate(-90) scale(21.69 -21.69)" gradientUnits="userSpaceOnUse"><stop offset="0" stop-color="#8accd8"/><stop offset="0" stop-color="#3986be"/><stop offset="1" stop-color="#004998"/></linearGradient><linearGradient id="_무제_그라디언트_86-7" x1="135.65" y1="39.35" x2="135.65" y2="67.43" xlink:href="#_무제_그라디언트_86"/><linearGradient id="_무제_그라디언트_86-8" x1="151.78" y1="40.46" x2="151.78" y2="66.53" xlink:href="#_무제_그라디언트_86"/><linearGradient id="_무제_그라디언트_86-9" x1="167.91" y1="39.35" x2="167.91" y2="67.43" xlink:href="#_무제_그라디언트_86"/><linearGradient id="_무제_그라디언트_86-10" x1="187.68" y1="38.87" x2="187.68" y2="66.53" xlink:href="#_무제_그라디언트_86"/><linearGradient id="_무제_그라디언트_86-11" x1="215.42" y1="38.87" x2="215.42" y2="66.23" xlink:href="#_무제_그라디언트_86"/><linearGradient id="_무제_그라디언트_86-12" x1="242.28" y1="38.87" x2="242.28" y2="66.53" xlink:href="#_무제_그라디언트_86"/></defs><g id="_레이어_1"><path class="cls-32" d="M173.9,91.38c-.26-.31-.48-.57-.64-.78s-.34-.44-.51-.69c-.28-.38-.5-.73-.68-1.05s-.29-.55-.33-.7h-.02c-.08.31-.31.79-.71,1.44-.19.29-.39.59-.6.92s-.5.73-.87,1.23l-1.16-.89c.25-.34.47-.64.66-.91.19-.26.35-.51.5-.73.14-.23.27-.43.38-.61.11-.18.21-.36.31-.54.13-.24.24-.47.33-.68.09-.21.16-.42.22-.63.06-.21.1-.44.12-.68.02-.24.03-.5.03-.8v-4.08h1.57v4.09c0,.46.05.89.14,1.27.09.39.27.82.52,1.3.11.22.21.41.31.56.1.15.24.36.43.61.19-.25.33-.46.43-.61.1-.15.2-.34.31-.56.24-.48.41-.92.51-1.3.1-.38.15-.81.15-1.27v-4.09h1.57v4.08c0,.3.01.56.04.8s.07.46.13.68c.06.21.13.43.22.63s.2.43.33.68c.09.18.18.35.28.51.1.17.21.35.35.55.13.2.28.43.45.68.17.25.38.54.63.88l-1.15.89c-.19-.24-.34-.46-.47-.64-.13-.19-.24-.36-.35-.51s-.2-.3-.29-.43c-.09-.13-.18-.27-.26-.41-.2-.32-.35-.6-.47-.84-.12-.24-.19-.43-.22-.58h-.02c-.04.15-.15.39-.33.7-.18.31-.4.66-.68,1.05-.19.25-.36.48-.52.69-.16.21-.37.47-.64.78h-.03ZM181.74,95.3h-1.58v-15.21h1.58v15.21Z"/><path class="cls-18" d="M187.17,80.8c.55,0,1.04.09,1.46.28.42.19.78.44,1.06.75.29.31.5.67.65,1.08.15.41.22.83.22,1.27v.73c0,.44-.07.86-.22,1.27s-.37.77-.65,1.08c-.29.31-.64.56-1.06.75-.42.19-.91.28-1.46.28s-1.04-.09-1.46-.28c-.42-.19-.78-.44-1.06-.75s-.5-.67-.65-1.08-.22-.83-.22-1.27v-.73c0-.44.07-.87.22-1.28.15-.41.37-.77.65-1.08.29-.31.64-.55,1.06-.74s.91-.28,1.46-.28ZM187.17,86.9c.31,0,.58-.06.82-.17.24-.12.43-.27.58-.46s.26-.42.34-.67c.08-.25.12-.52.12-.79v-.53c0-.28-.04-.54-.12-.79-.08-.25-.19-.47-.34-.66-.15-.19-.34-.34-.58-.45s-.51-.17-.82-.17-.59.05-.83.17c-.23.11-.42.26-.57.45-.15.19-.26.41-.34.66-.08.25-.12.52-.12.81v.53c0,.28.04.54.12.79.08.25.19.48.34.67s.34.35.57.46c.23.12.51.17.83.17ZM188.45,93.72h8.42v1.42h-10.05v-5.03h1.63v3.61ZM195.02,80.09h1.57v10.81h-1.57v-5.45h-1.53v5.08h-1.55v-10.25h1.55v3.78h1.53v-3.98Z"/><path class="cls-16" d="M203.93,91.38c-.26-.31-.48-.57-.64-.78s-.34-.44-.51-.69c-.28-.38-.5-.73-.68-1.05s-.29-.55-.33-.7h-.02c-.08.31-.31.79-.71,1.44-.19.29-.39.59-.6.92s-.5.73-.87,1.23l-1.16-.89c.25-.34.47-.64.66-.91.19-.26.35-.51.5-.73.14-.23.27-.43.38-.61.11-.18.21-.36.31-.54.13-.24.24-.47.33-.68.09-.21.16-.42.22-.63.06-.21.1-.44.12-.68.02-.24.03-.5.03-.8v-4.08h1.57v4.09c0,.46.05.89.14,1.27.09.39.27.82.52,1.3.11.22.21.41.31.56.1.15.24.36.43.61.19-.25.33-.46.43-.61.1-.15.2-.34.31-.56.24-.48.41-.92.51-1.3.1-.38.15-.81.15-1.27v-4.09h1.57v4.08c0,.3.01.56.04.8s.07.46.13.68c.06.21.13.43.22.63s.2.43.33.68c.09.18.18.35.28.51.1.17.21.35.35.55.13.2.28.43.45.68.17.25.38.54.63.88l-1.15.89c-.19-.24-.34-.46-.47-.64-.13-.19-.24-.36-.35-.51s-.2-.3-.29-.43c-.09-.13-.18-.27-.26-.41-.2-.32-.35-.6-.47-.84-.12-.24-.19-.43-.22-.58h-.02c-.04.15-.15.39-.33.7-.18.31-.4.66-.68,1.05-.19.25-.36.48-.52.69-.16.21-.37.47-.64.78h-.03ZM211.77,95.3h-1.58v-15.21h1.58v15.21Z"/><path class="cls-33" d="M221.16,91.44c-1.1,0-1.91-.38-2.43-1.13-.52-.75-.78-1.84-.78-3.26v-1.29c0-1.42.26-2.5.78-3.26.52-.75,1.33-1.13,2.43-1.13s1.91.38,2.43,1.13c.52.75.78,1.84.78,3.26v.08h2.03v-5.38h1.16v14.02h-1.16v-7.61h-2.03v.17c0,1.42-.26,2.51-.78,3.26-.52.75-1.33,1.13-2.43,1.13ZM221.16,82.45c-.74,0-1.27.29-1.6.88s-.5,1.44-.5,2.57v1.02c0,1.13.17,1.99.5,2.57s.86.87,1.6.87,1.27-.29,1.6-.87.5-1.44.5-2.57v-1.02c0-1.13-.17-1.99-.5-2.57s-.86-.88-1.6-.88ZM230.46,95.24h-1.16v-15.08h1.16v15.08Z"/><path class="cls-33" d="M249.45,95.24h-1.16v-8.61h-3.38v.51c0,1.39-.33,2.46-.98,3.23s-1.57,1.15-2.73,1.15-2.08-.38-2.73-1.15-.98-1.84-.98-3.23v-1.55c0-1.37.33-2.44.98-3.21s1.56-1.15,2.73-1.15,2.07.38,2.72,1.14c.65.76.98,1.83.99,3.2h3.38v-5.41h1.16v15.08ZM243.77,85.8c0-.63-.06-1.16-.18-1.6-.12-.44-.29-.8-.52-1.08-.23-.28-.5-.48-.82-.61-.32-.13-.67-.19-1.06-.19s-.74.06-1.06.19c-.32.13-.59.33-.82.61-.23.28-.4.64-.52,1.08-.12.44-.18.97-.18,1.6v1.14c0,.63.06,1.16.18,1.61.12.45.29.81.52,1.09.23.28.5.48.82.61.32.13.67.19,1.06.19s.74-.06,1.06-.19c.32-.13.59-.33.82-.61.23-.28.4-.64.52-1.09s.18-.98.18-1.61v-1.14Z"/><path class="cls-33" d="M261.06,92.1v-3.79h1.19v3.79h7.41v1.01h-13.86v-1.01h5.26ZM266.43,85.47c.01-.22.02-.45.03-.68,0-.23,0-.47,0-.73v-1.55h-8.83v-1.02h10.03v1.96c0,.74-.01,1.42-.04,2.04-.03.62-.07,1.2-.12,1.75-.05.54-.11,1.06-.18,1.55s-.16.98-.26,1.48l-1.2-.13c.12-.63.22-1.24.3-1.83.08-.59.15-1.2.21-1.83l-8.96.15-.03-1.04,9.04-.12Z"/><path class="cls-33" d="M277.51,90.45h2.26c.83,0,1.69-.03,2.55-.07.86-.05,1.68-.13,2.45-.26l.13,1.01c-.88.14-1.78.24-2.7.29-.92.05-1.83.07-2.73.07h-3.12v-5.77h5.46v-3.32h-5.46v-1.02h6.62v5.36h-5.46v3.71ZM287.64,95.24h-1.17v-15.08h1.17v15.08Z"/><path class="cls-33" d="M301.84,87.14c0,1.39-.33,2.46-.98,3.23s-1.57,1.15-2.73,1.15-2.08-.38-2.73-1.15-.98-1.84-.98-3.23v-1.55c0-1.37.33-2.44.98-3.21s1.57-1.15,2.73-1.15,2.08.38,2.73,1.16c.65.77.98,1.84.98,3.22v1.54ZM300.7,85.8c0-.63-.06-1.16-.18-1.6-.12-.44-.29-.8-.52-1.08-.23-.28-.5-.48-.82-.61-.32-.13-.67-.19-1.06-.19s-.74.06-1.06.19c-.32.13-.59.33-.82.61-.23.28-.4.64-.52,1.08-.12.44-.18.97-.18,1.6v1.14c0,.63.06,1.16.18,1.61s.29.81.52,1.09c.23.28.5.48.82.61.32.13.67.19,1.06.19s.74-.06,1.06-.19c.32-.13.59-.33.82-.61.23-.28.4-.64.52-1.09.12-.45.18-.98.18-1.61v-1.14ZM305.6,85.82h2.51v1.04h-2.51v8.38h-1.17v-15.08h1.17v5.66Z"/><path class="cls-17" d="M173.9,114.24c-.26-.31-.48-.57-.64-.78s-.34-.44-.51-.69c-.28-.38-.5-.73-.68-1.05s-.29-.55-.33-.7h-.02c-.08.31-.31.79-.71,1.44-.19.29-.39.59-.6.92-.21.33-.5.73-.87,1.23l-1.16-.89c.25-.34.47-.64.66-.91.19-.26.35-.51.5-.73.14-.23.27-.43.38-.61.11-.18.21-.36.31-.54.13-.24.24-.47.33-.68.09-.21.16-.42.22-.64.06-.21.1-.44.12-.68.02-.24.03-.5.03-.8v-4.08h1.57v4.09c0,.46.05.89.14,1.27.09.38.27.82.52,1.3.11.22.21.41.31.56s.24.36.43.61c.19-.25.33-.46.43-.61.1-.15.2-.34.31-.56.24-.48.41-.92.51-1.3.1-.38.15-.81.15-1.27v-4.09h1.57v4.08c0,.3.01.56.04.8.03.24.07.46.13.68s.13.43.22.64.2.43.33.68c.09.18.18.35.28.51.1.17.21.35.35.55.13.2.28.43.45.68.17.25.38.54.63.88l-1.15.89c-.19-.24-.34-.46-.47-.64-.13-.19-.24-.36-.35-.51-.1-.15-.2-.3-.29-.43-.09-.13-.18-.27-.26-.41-.2-.32-.35-.6-.47-.84-.12-.24-.19-.43-.22-.58h-.02c-.04.15-.15.39-.33.7-.18.31-.4.66-.68,1.05-.19.25-.36.48-.52.69-.16.21-.37.47-.64.78h-.03ZM181.74,118.17h-1.58v-15.21h1.58v15.21Z"/><path class="cls-20" d="M187.17,103.67c.55,0,1.04.09,1.46.28.42.19.78.44,1.06.75.29.31.5.67.65,1.08s.22.83.22,1.27v.73c0,.44-.07.86-.22,1.27-.15.41-.37.77-.65,1.08-.29.31-.64.56-1.06.75-.42.19-.91.28-1.46.28s-1.04-.09-1.46-.28c-.42-.19-.78-.44-1.06-.75s-.5-.67-.65-1.08c-.15-.41-.22-.83-.22-1.27v-.73c0-.44.07-.87.22-1.28.15-.41.37-.77.65-1.08.29-.31.64-.56,1.06-.74.42-.19.91-.28,1.46-.28ZM187.17,109.77c.31,0,.58-.06.82-.17s.43-.27.58-.46.26-.42.34-.67c.08-.25.12-.52.12-.79v-.53c0-.27-.04-.54-.12-.79-.08-.25-.19-.47-.34-.66-.15-.19-.34-.34-.58-.45-.24-.12-.51-.17-.82-.17s-.59.06-.83.17c-.23.11-.42.26-.57.45-.15.19-.26.41-.34.66-.08.25-.12.52-.12.81v.53c0,.28.04.54.12.79.08.25.19.48.34.67s.34.35.57.46c.23.12.51.17.83.17ZM188.45,116.59h8.42v1.42h-10.05v-5.03h1.63v3.61ZM195.02,102.96h1.57v10.81h-1.57v-5.44h-1.53v5.08h-1.55v-10.25h1.55v3.78h1.53v-3.98Z"/><path class="cls-19" d="M203.93,114.24c-.26-.31-.48-.57-.64-.78s-.34-.44-.51-.69c-.28-.38-.5-.73-.68-1.05s-.29-.55-.33-.7h-.02c-.08.31-.31.79-.71,1.44-.19.29-.39.59-.6.92-.21.33-.5.73-.87,1.23l-1.16-.89c.25-.34.47-.64.66-.91.19-.26.35-.51.5-.73.14-.23.27-.43.38-.61.11-.18.21-.36.31-.54.13-.24.24-.47.33-.68.09-.21.16-.42.22-.64.06-.21.1-.44.12-.68.02-.24.03-.5.03-.8v-4.08h1.57v4.09c0,.46.05.89.14,1.27.09.38.27.82.52,1.3.11.22.21.41.31.56s.24.36.43.61c.19-.25.33-.46.43-.61.1-.15.2-.34.31-.56.24-.48.41-.92.51-1.3.1-.38.15-.81.15-1.27v-4.09h1.57v4.08c0,.3.01.56.04.8.03.24.07.46.13.68s.13.43.22.64.2.43.33.68c.09.18.18.35.28.51.1.17.21.35.35.55.13.2.28.43.45.68.17.25.38.54.63.88l-1.15.89c-.19-.24-.34-.46-.47-.64-.13-.19-.24-.36-.35-.51-.1-.15-.2-.3-.29-.43-.09-.13-.18-.27-.26-.41-.2-.32-.35-.6-.47-.84-.12-.24-.19-.43-.22-.58h-.02c-.04.15-.15.39-.33.7-.18.31-.4.66-.68,1.05-.19.25-.36.48-.52.69-.16.21-.37.47-.64.78h-.03ZM211.77,118.17h-1.58v-15.21h1.58v15.21Z"/><path class="cls-33" d="M217.94,112.96h1.52v-7.41h-1.5v-1.01h7.59v1.01h-1.53v7.36c.32-.02.63-.05.94-.07.31-.03.6-.06.89-.11l.1.97c-.68.1-1.43.17-2.24.21-.81.04-1.6.06-2.38.06h-3.38v-1.01ZM221.16,112.96h.89c.29,0,.57,0,.84-.02v-7.39h-2.31v7.41h.58ZM228.22,117.36h-1.16v-7.75h-2.09v-1.06h2.09v-5.21h1.16v14.03ZM231.02,118.1h-1.15v-15.08h1.15v15.08Z"/><path class="cls-33" d="M241.15,110.02c0,1.39-.33,2.46-.98,3.23-.65.77-1.57,1.15-2.75,1.15s-2.09-.38-2.75-1.15c-.65-.77-.98-1.85-.98-3.23v-1.57c0-1.39.33-2.46.98-3.23.66-.76,1.57-1.15,2.75-1.15s2.09.38,2.75,1.15c.65.77.98,1.85.98,3.23v1.55ZM240.02,108.67c0-.63-.06-1.16-.19-1.6-.13-.44-.3-.8-.53-1.08s-.5-.49-.82-.62c-.32-.13-.67-.2-1.06-.2s-.74.07-1.06.2c-.32.13-.59.34-.82.62s-.4.64-.53,1.08c-.13.44-.19.97-.19,1.6v1.15c0,.63.06,1.16.19,1.61.13.45.3.81.53,1.09s.5.49.82.62c.32.13.67.2,1.06.2s.74-.07,1.06-.2c.32-.13.59-.34.82-.62s.4-.64.53-1.09c.13-.45.19-.98.19-1.61v-1.15ZM245.31,118.1h-1.17v-15.08h1.17v15.08Z"/><path class="cls-33" d="M256.9,105.48h-1.72v7.49c.42-.02.82-.05,1.21-.07.39-.03.77-.06,1.15-.11l.08.99c-.86.1-1.77.17-2.75.21-.97.04-1.93.06-2.86.06h-3.99v-1.02h1.76v-7.54h-1.6v-1.01h8.71v1.01ZM252.41,113.02h.83c.27,0,.54,0,.8-.02v-7.52h-3.12v7.54h1.49ZM259.3,108.45v-5.43h1.16v15.08h-1.16v-8.6h-2.64v-1.06h2.64Z"/><path class="cls-33" d="M269.2,114.97v-3.79h1.19v3.79h7.41v1.01h-13.86v-1.01h5.26ZM274.56,108.34c.01-.22.02-.45.03-.68,0-.23,0-.47,0-.73v-1.55h-8.83v-1.02h10.03v1.96c0,.74-.01,1.42-.04,2.04-.03.62-.07,1.2-.12,1.75s-.11,1.06-.18,1.55c-.07.49-.16.98-.26,1.48l-1.2-.13c.12-.63.22-1.24.3-1.83.08-.59.15-1.21.21-1.83l-8.96.15-.03-1.04,9.04-.12Z"/><path class="cls-33" d="M281.26,113.32h2.26c.83,0,1.69-.02,2.55-.07.86-.05,1.68-.13,2.45-.26l.13,1.01c-.88.14-1.78.24-2.7.29-.92.05-1.83.07-2.73.07h-3.12v-5.78h5.46v-3.32h-5.46v-1.02h6.62v5.36h-5.46v3.71ZM291.39,118.1h-1.17v-15.08h1.17v15.08Z"/><path class="cls-33" d="M301.84,110c0,1.39-.33,2.46-.98,3.23-.65.76-1.57,1.15-2.73,1.15s-2.08-.38-2.73-1.15c-.65-.76-.98-1.84-.98-3.23v-1.55c0-1.38.33-2.44.98-3.21s1.57-1.15,2.73-1.15,2.08.39,2.73,1.16c.65.77.98,1.84.98,3.22v1.53ZM300.7,108.67c0-.63-.06-1.16-.18-1.6-.12-.44-.29-.8-.52-1.08s-.5-.48-.82-.61c-.32-.13-.67-.19-1.06-.19s-.74.06-1.06.19c-.32.13-.59.33-.82.61s-.4.64-.52,1.08c-.12.44-.18.97-.18,1.6v1.14c0,.63.06,1.16.18,1.61s.29.81.52,1.09.5.48.82.61c.32.13.67.19,1.06.19s.74-.06,1.06-.19c.32-.13.59-.33.82-.61s.4-.64.52-1.09c.12-.45.18-.98.18-1.61v-1.14ZM305.6,108.68h2.51v1.04h-2.51v8.38h-1.17v-15.08h1.17v5.66Z"/><path class="cls-34" d="M48.52,116.56c-5.36-8.76-8.23-18.33-8.84-27.9-.46-7.26.37-14.52,2.44-21.43-.74-6.32-.48-12.69.74-18.86,3.18-16.17,12.86-31,28.02-40.28,4.55-2.79,9.33-4.9,14.22-6.38-17.09-3.83-35.63-1.31-51.72,8.54-9.96,6.09-17.84,14.3-23.44,23.7C-2.08,54.04-3.59,79.58,7.56,101.51c.83,1.62,1.71,3.24,2.68,4.82,13.9,22.72,38.8,34.69,63.7,33.27-10.16-4.92-19.08-12.69-25.41-23.04"/><path class="cls-3" d="M94.62,92.45l-4.29-4.28c-1.74,1.95-3.8,3.69-6.14,5.13-3.81,2.33-7.97,3.61-12.14,3.95-2.05.16-4.1.09-6.12-.2-7.36-1.07-14.24-5.09-18.72-11.61-.27-.4-.55-.81-.8-1.23-2.84-4.64-4.12-9.8-4.02-14.87-.11-.7-.19-1.4-.27-2.11-2.07,6.91-2.9,14.17-2.44,21.43.62,9.58,3.48,19.15,8.84,27.9,6.33,10.35,15.25,18.12,25.41,23.04,11.12-.63,22.24-3.93,32.39-10.14,5.04-3.08,9.55-6.71,13.5-10.76.17-.18.33-.37.51-.55l-25.7-25.71Z"/><path class="cls-35" d="M85.09,1.7c-4.89,1.48-9.66,3.59-14.22,6.38-15.16,9.28-24.83,24.12-28.02,40.29-1.22,6.17-1.47,12.53-.74,18.85.22-.73.44-1.45.69-2.17.88-4.92,3.08-9.6,6.48-13.43,1.76-1.99,3.84-3.76,6.22-5.22,3.09-1.89,6.41-3.09,9.78-3.65,3.78-.63,7.62-.46,11.28.46,6.05,1.53,11.59,5.1,15.48,10.44l4.27-4.27,22.79-22.79,3.05-3.05c-9.94-11.24-23-18.7-37.06-21.84"/><g class="cls-36"><rect class="cls-15" x="-8.63" y="30.41" width="87.61" height="114.13" transform="translate(-8.37 3.85) rotate(-5.6)"/></g><g class="cls-24"><rect class="cls-11" x="48.99" y="75.19" width="74.52" height="68.07" transform="translate(-48.62 74.89) rotate(-37.42)"/></g><g class="cls-27"><rect class="cls-10" x="-5.31" y="-11.56" width="105.19" height="111.78" transform="translate(-13.97 23.14) rotate(-24.07)"/></g><g class="cls-25"><rect class="cls-9" x="32.62" y="59.68" width="93.8" height="87.45" transform="translate(-19.63 18.63) rotate(-11.91)"/></g><g class="cls-26"><rect class="cls-6" x="38.18" y="-19.69" width="88.65" height="89.45" transform="translate(7.18 66.98) rotate(-45.99)"/></g><g class="cls-31"><rect class="cls-7" x="45.56" y="81.22" width="22.02" height="20.03" transform="translate(-41 46.47) rotate(-33.55)"/></g><g class="cls-29"><rect class="cls-5" x="71.42" y="82.68" width="23.83" height="20.04" transform="translate(-37.35 61.51) rotate(-33.55)"/></g><g class="cls-28"><rect class="cls-4" x="54.9" y="23.69" width="64.21" height="29.96"/></g><g class="cls-30"><rect class="cls-8" x="36.25" y="37.89" width="34.17" height="34.19" transform="translate(-23.19 51.39) rotate(-43.18)"/></g><path class="cls-23" d="M135.18,54.11c0,2.28.27,4.54.81,6.78.54,2.24,1.5,4.42,2.89,6.54h-2.48c-1.35-1.78-2.35-3.8-3-6.06-.65-2.26-.97-4.73-.97-7.41v-1.2c0-2.68.32-5.14.97-7.38.65-2.24,1.65-4.25,3-6.03h2.48c-1.33,2-2.28,4.11-2.85,6.32-.57,2.21-.85,4.53-.85,6.95v1.5Z"/><path class="cls-22" d="M150.43,66.53v-9.48h-10.07v-2.52h22.84v2.52h-10.07v9.48h-2.7ZM154.81,49.58c-.9-.5-1.58-.94-2.05-1.32-.47-.38-.78-.74-.95-1.08h-.03c-.14.34-.46.71-.93,1.1-.48.39-1.17.83-2.07,1.33-.74.4-1.56.84-2.47,1.32-.91.48-1.93.96-3.06,1.44l-1.05-2.43c1.01-.42,2-.88,2.97-1.37s1.89-1,2.75-1.51c.54-.32.98-.65,1.31-.98s.59-.67.77-1c.18-.34.3-.68.36-1.04.06-.35.09-.71.09-1.06h-7.16v-2.52h17.01v2.52h-7.18c0,.36.03.71.09,1.06.06.35.18.7.35,1.04s.42.67.76,1,.77.66,1.31.98c.86.52,1.78,1.02,2.75,1.51.97.49,1.96.95,2.97,1.37l-1.03,2.4c-1.13-.48-2.16-.96-3.06-1.44-.91-.48-1.73-.92-2.47-1.32Z"/><path class="cls-21" d="M168.39,52.61c0-2.42-.28-4.74-.85-6.95s-1.52-4.31-2.85-6.32h2.48c1.35,1.78,2.35,3.79,3,6.03.65,2.24.97,4.7.97,7.38v1.2c0,2.68-.32,5.15-.97,7.41-.65,2.26-1.65,4.28-3,6.06h-2.48c1.39-2.12,2.35-4.3,2.89-6.54.54-2.24.81-4.5.81-6.78v-1.5Z"/><path class="cls-14" d="M185.57,59.39c-.48-.56-.87-1.03-1.17-1.41s-.61-.8-.93-1.26c-.5-.7-.91-1.33-1.23-1.9-.32-.57-.52-1-.6-1.28h-.03c-.14.56-.57,1.43-1.29,2.61-.34.52-.71,1.08-1.09,1.67-.39.59-.92,1.33-1.58,2.23l-2.1-1.62c.46-.62.86-1.17,1.2-1.65.34-.48.64-.92.9-1.33.26-.41.49-.78.69-1.11s.39-.65.57-.97c.24-.44.44-.85.6-1.23.16-.38.29-.76.4-1.16.11-.39.18-.8.23-1.23.04-.43.06-.92.06-1.46v-7.41h2.85v7.44c0,.84.08,1.61.26,2.31.17.7.48,1.49.94,2.37.2.4.39.74.57,1.02s.44.65.78,1.11c.34-.46.6-.83.78-1.11.18-.28.37-.62.57-1.02.44-.88.75-1.67.93-2.37.18-.7.27-1.47.27-2.31v-7.44h2.85v7.41c0,.54.03,1.03.08,1.46.05.43.13.84.24,1.23.11.39.24.78.41,1.16.16.38.36.79.6,1.23.16.32.33.63.51.93.18.3.39.63.63,1,.24.37.51.78.83,1.23.31.45.69.99,1.16,1.6l-2.1,1.62c-.34-.44-.62-.83-.85-1.17-.23-.34-.44-.65-.63-.93-.19-.28-.37-.54-.53-.78s-.32-.49-.48-.75c-.36-.58-.65-1.09-.86-1.53-.21-.44-.34-.79-.41-1.05h-.03c-.08.28-.28.71-.6,1.28-.32.57-.73,1.21-1.23,1.9-.34.46-.66.88-.95,1.26s-.67.85-1.16,1.41h-.06ZM199.82,66.53h-2.88v-27.66h2.88v27.66Z"/><path class="cls-12" d="M209.69,40.16c1,0,1.88.17,2.65.51.77.34,1.42.79,1.94,1.37.52.57.92,1.23,1.18,1.96.27.74.41,1.51.41,2.31v1.32c0,.8-.13,1.57-.41,2.31-.27.74-.67,1.39-1.18,1.96-.52.57-1.17,1.03-1.94,1.37-.77.34-1.66.51-2.65.51s-1.89-.17-2.66-.51c-.77-.34-1.42-.8-1.94-1.37-.52-.57-.91-1.22-1.18-1.96-.27-.74-.41-1.51-.41-2.31v-1.32c0-.8.14-1.58.41-2.33.27-.75.67-1.41,1.18-1.96.52-.56,1.17-1.01,1.94-1.35.77-.34,1.65-.51,2.66-.51ZM209.69,51.26c.56,0,1.05-.1,1.48-.31s.78-.49,1.05-.84c.27-.35.48-.75.62-1.22.14-.46.21-.94.21-1.44v-.96c0-.5-.07-.98-.21-1.44-.14-.46-.34-.86-.62-1.2-.27-.34-.62-.61-1.05-.82s-.92-.32-1.48-.32-1.08.1-1.5.3c-.42.2-.77.47-1.04.81-.27.34-.48.74-.62,1.2s-.21.95-.21,1.47v.96c0,.5.07.98.21,1.44.14.46.34.87.62,1.22.27.35.62.63,1.04.84s.92.31,1.5.31ZM212.03,63.65h15.3v2.58h-18.27v-9.15h2.97v6.57ZM223.97,38.87h2.85v19.65h-2.85v-9.9h-2.79v9.24h-2.82v-18.63h2.82v6.87h2.79v-7.23Z"/><path class="cls-13" d="M240.17,59.39c-.48-.56-.87-1.03-1.17-1.41-.3-.38-.61-.8-.93-1.26-.5-.7-.91-1.33-1.23-1.9-.32-.57-.52-1-.6-1.28h-.03c-.14.56-.57,1.43-1.29,2.61-.34.52-.71,1.08-1.1,1.67-.39.59-.92,1.33-1.57,2.23l-2.1-1.62c.46-.62.86-1.17,1.2-1.65.34-.48.64-.92.9-1.33.26-.41.49-.78.69-1.11s.39-.65.57-.97c.24-.44.44-.85.6-1.23s.29-.76.41-1.16c.11-.39.18-.8.22-1.23.04-.43.06-.92.06-1.46v-7.41h2.85v7.44c0,.84.08,1.61.25,2.31.17.7.49,1.49.95,2.37.2.4.39.74.57,1.02.18.28.44.65.78,1.11.34-.46.6-.83.78-1.11s.37-.62.57-1.02c.44-.88.75-1.67.93-2.37.18-.7.27-1.47.27-2.31v-7.44h2.85v7.41c0,.54.02,1.03.08,1.46.05.43.13.84.24,1.23.11.39.24.78.4,1.16s.36.79.6,1.23c.16.32.33.63.51.93s.39.63.63,1,.51.78.83,1.23c.31.45.69.99,1.16,1.6l-2.1,1.62c-.34-.44-.62-.83-.85-1.17-.23-.34-.44-.65-.63-.93-.19-.28-.37-.54-.53-.78s-.32-.49-.48-.75c-.36-.58-.64-1.09-.85-1.53-.21-.44-.34-.79-.41-1.05h-.03c-.08.28-.28.71-.6,1.28-.32.57-.73,1.21-1.23,1.9-.34.46-.66.88-.95,1.26s-.67.85-1.16,1.41h-.06ZM254.42,66.53h-2.88v-27.66h2.88v27.66Z"/><path class="cls-33" d="M273.18,60.71v-6.9h2.16v6.9h13.47v1.83h-25.2v-1.83h9.57ZM282.93,48.65c.02-.4.03-.81.04-1.23,0-.42.01-.86.01-1.32v-2.82h-16.05v-1.86h18.24v3.57c0,1.34-.03,2.58-.08,3.71s-.12,2.19-.21,3.18-.2,1.93-.33,2.82-.29,1.79-.46,2.68l-2.19-.24c.22-1.14.41-2.25.56-3.33.15-1.08.27-2.19.38-3.33l-16.29.27-.06-1.89,16.44-.21Z"/><path class="cls-33" d="M295.11,57.71h4.11c1.52,0,3.06-.04,4.63-.13,1.57-.09,3.05-.25,4.46-.46l.24,1.83c-1.6.26-3.24.43-4.91.52s-3.33.13-4.96.13h-5.67v-10.5h9.93v-6.03h-9.93v-1.86h12.03v9.75h-9.93v6.75ZM313.53,66.41h-2.13v-27.42h2.13v27.42Z"/><path class="cls-33" d="M332.67,51.68c0,2.52-.59,4.48-1.79,5.87-1.19,1.39-2.84,2.08-4.96,2.08s-3.78-.69-4.96-2.08c-1.19-1.39-1.79-3.34-1.79-5.87v-2.82c0-2.5.59-4.45,1.79-5.83,1.19-1.39,2.84-2.08,4.96-2.08s3.78.7,4.96,2.1c1.19,1.4,1.79,3.35,1.79,5.85v2.79ZM330.6,49.25c0-1.14-.11-2.11-.33-2.91-.22-.8-.54-1.46-.95-1.96-.41-.51-.91-.88-1.49-1.11-.58-.23-1.22-.34-1.92-.34s-1.34.12-1.92.34c-.58.23-1.08.6-1.48,1.11-.41.51-.73,1.17-.95,1.96-.22.8-.33,1.77-.33,2.91v2.07c0,1.14.11,2.12.33,2.92.22.81.54,1.47.95,1.98.41.51.9.88,1.48,1.11.58.23,1.22.34,1.92.34s1.34-.11,1.92-.34c.58-.23,1.08-.6,1.49-1.11.41-.51.72-1.17.95-1.98.22-.81.33-1.79.33-2.92v-2.07ZM339.51,49.28h4.56v1.89h-4.56v15.24h-2.13v-27.42h2.13v10.29Z"/><path class="cls-2" d="M139.04,24.21c-1.65,0-3.02,1.35-3.02,3.79s1.37,3.77,3.02,3.77c1.46,0,2.47-1.03,2.7-2.19h.62c-.25,1.43-1.44,2.78-3.32,2.78-2.13,0-3.62-1.72-3.62-4.36s1.49-4.36,3.62-4.36c1.88,0,3.07,1.32,3.32,2.78h-.62c-.22-1.15-1.23-2.2-2.7-2.2Z"/><path class="cls-2" d="M144.49,32.24h-.59v-8.48h.59v8.48Z"/><path class="cls-2" d="M145.97,29.09c0-1.91,1.15-3.3,2.74-3.3,1.42,0,2.67,1.14,2.67,3.09v.33h-4.82c.02,1.54.88,2.62,2.26,2.62,1,0,1.55-.57,1.77-.98h.63c-.27.8-1.12,1.52-2.4,1.52-1.75,0-2.86-1.37-2.86-3.28ZM150.78,28.68c0-1.32-.89-2.36-2.07-2.36s-2.06,1.04-2.13,2.36h4.21Z"/><path class="cls-2" d="M154.82,28.6c.45-.04,1.51-.11,1.82-.13v-.68c0-.9-.62-1.48-1.65-1.48-.87,0-1.51.41-1.68,1.07h-.61c.14-.97,1.08-1.59,2.31-1.59,1.08,0,2.21.56,2.21,2.05v4.41h-.59v-1.1h-.05c-.32.67-1.01,1.24-2.03,1.24-1.11,0-2.04-.68-2.04-1.9,0-1.12.81-1.77,2.3-1.89ZM154.64,31.84c1.18,0,2-.93,2-2.14v-.73c-.32.03-1.35.11-1.7.13-1.32.09-1.83.64-1.83,1.41,0,.83.66,1.34,1.52,1.34Z"/><path class="cls-2" d="M159.65,32.24h-.59v-6.36h.57v1.01h.06c.29-.66.96-1.09,1.88-1.09,1.29,0,2.17.84,2.17,2.27v4.17h-.59v-4.14c0-1.07-.68-1.77-1.71-1.77s-1.79.73-1.79,1.83v4.08Z"/><path class="cls-2" d="M168.01,30.06c0-.89.54-1.49,1.61-2.26l.2-.15c-.71-.86-1.16-1.41-1.16-2.14,0-1.04.82-1.85,1.91-1.85s1.85.77,1.85,1.75c0,.74-.39,1.29-1.17,1.9l-.62.46,2.19,2.72c.26-.44.43-.98.49-1.59h.57c-.05.96-.39,1.61-.7,2.05l1.05,1.31h-.71l-.69-.87-.04.05c-.56.6-1.43.94-2.25.94-1.49,0-2.53-1-2.53-2.3ZM170.53,31.82c.77-.01,1.45-.33,1.95-.88l-2.3-2.86-.38.28c-.9.68-1.2,1.21-1.2,1.7,0,.96.81,1.75,1.92,1.76ZM170.27,27.31l.59-.43c.66-.49.96-.88.96-1.48,0-.66-.52-1.22-1.23-1.22-.75,0-1.35.64-1.35,1.34,0,.53.4,1.03,1.03,1.79Z"/><path class="cls-2" d="M181.4,24.21c-1.65,0-3.02,1.35-3.02,3.79s1.37,3.77,3.02,3.77c1.46,0,2.47-1.03,2.7-2.19h.62c-.25,1.43-1.44,2.78-3.32,2.78-2.13,0-3.62-1.72-3.62-4.36s1.49-4.36,3.62-4.36c1.88,0,3.07,1.32,3.32,2.78h-.62c-.22-1.15-1.23-2.2-2.7-2.2Z"/><path class="cls-2" d="M186.85,32.24h-.59v-8.48h.59v8.48Z"/><path class="cls-2" d="M188.33,29.09c0-1.91,1.15-3.3,2.74-3.3,1.42,0,2.67,1.14,2.67,3.09v.33h-4.82c.02,1.54.88,2.62,2.26,2.62,1,0,1.55-.57,1.77-.98h.63c-.27.8-1.12,1.52-2.4,1.52-1.75,0-2.86-1.37-2.86-3.28ZM193.15,28.68c0-1.32-.89-2.36-2.07-2.36s-2.06,1.04-2.13,2.36h4.21Z"/><path class="cls-2" d="M197.19,28.6c.45-.04,1.51-.11,1.82-.13v-.68c0-.9-.62-1.48-1.65-1.48-.87,0-1.51.41-1.68,1.07h-.61c.14-.97,1.08-1.59,2.31-1.59,1.08,0,2.21.56,2.21,2.05v4.41h-.59v-1.1h-.05c-.32.67-1.01,1.24-2.03,1.24-1.11,0-2.04-.68-2.04-1.9,0-1.12.81-1.77,2.3-1.89ZM197,31.84c1.18,0,2-.93,2-2.14v-.73c-.32.03-1.35.11-1.7.13-1.32.09-1.83.64-1.83,1.41,0,.83.66,1.34,1.52,1.34Z"/><path class="cls-2" d="M201.43,25.88h.57v1h.05c.27-.66.97-1.09,1.79-1.09h.3v.61c-.07-.01-.19-.04-.34-.04-1.03,0-1.79.73-1.79,1.72v4.16h-.59v-6.36Z"/></g></svg>